# xmcd
#
# Track frame offsets:
# 150
# 21549
# 40928
# 53456
# 68789
# 93068
# 108726
# 120331
# 131334
# 146295
# 174698
# 191316
# 210295
# 223193
# 242925
# 258969
# 269853
#
# Disc length: 4006 seconds
#
#
# Revision: 0
# Processed by: cddbd v1.5.1PL0 Copyright (c) Steve Scherf et al.
# Submitted via: FreeRIP 2.92 
#
DISCID=f50fa411
DTITLE=ZZ-Top - One Food In The Blues
DYEAR=1900
DGENRE=Blues
TTITLE0=Brown Sugar
TTITLE1=Just Got Back From Baby´s
TTITLE2=A Fool For Your Stockings
TTITLE3=I Need You Tonight
TTITLE4=She Loves My Automobile
TTITLE5=Hi Fi Mama
TTITLE6=Hot, Blue And Righteous
TTITLE7=My Head´s In Mississippi
TTITLE8=Lowdown In The Street
TTITLE9=If I Could Only Flag Her Down
TTITLE10=Apologies To Pearly
TTITLE11=Sure Got Cold After The Rain Fell
TTITLE12=Bar-B-Q
TTITLE13=Old Man
TTITLE14=Certified Blues
TTITLE15=2000 Blues
TTITLE16=Heaven, Hell Or Houston
EXTD=
EXTT0=
EXTT1=
EXTT2=
EXTT3=
EXTT4=
EXTT5=
EXTT6=
EXTT7=
EXTT8=
EXTT9=
EXTT10=
EXTT11=
EXTT12=
EXTT13=
EXTT14=
EXTT15=
EXTT16=
PLAYORDER=
